# xmcd
#
# Track frame offsets: 
#        150
#        12280
#        31060
#        53174
#        66847
#        83296
#        100760
#        117093
#        131175
#        145452
#        160463
#        176463
#        196861
#        213047
#        229918
#        247459
#        264906
#        275894
#        293418
#
# Disc length: 4166 seconds
#
# Revision: 0
# Processed by: cddbd v1.5.2PL0 Copyright (c) Steve Scherf et al.
# Submitted via: ExactAudioCopy v1.0b2
#
DISCID=0d104413
DTITLE=Faith Evans - Something About Faith
DYEAR=2010
DGENRE=R&B
TTITLE0=omething About Faith (Intro)
TTITLE1=I Still
TTITLE2=Faith Evans Feat. Snoop Dog - Way You Move
TTITLE3=Real Things
TTITLE4=Worth It
TTITLE5=Gone Already
TTITLE6=Faith Evans Feat. Redman - Party
TTITLE7=Right Here
TTITLE8=Your Lover
TTITLE9=Faith Evans Feat. Keyshia Cole - Can t Stay Away
TTITLE10=Sunshine
TTITLE11=Faith Evans Feat. Raekwon - Everyday Strugge
TTITLE12=The Love In Me
TTITLE13=Change
TTITLE14=Faith Evans Feat. Kelly Price and Jessica Reedy - Troubled Worl
TTITLE14=d
TTITLE15=Baby Lay
TTITLE16=Your Lover Pt.2
TTITLE17=Faith Evans Feat. Fonzworth Bentley and Malik Pendleton - Robot
TTITLE18=Gone Already
EXTD=
EXTT0=
EXTT1=
EXTT2=
EXTT3=
EXTT4=
EXTT5=
EXTT6=
EXTT7=
EXTT8=
EXTT9=
EXTT10=
EXTT11=
EXTT12=
EXTT13=
EXTT14=
EXTT15=
EXTT16=
EXTT17=
EXTT18=
PLAYORDER=
